<svg height="512pt" viewBox="0 0 512 512" width="512pt" xmlns="http://www.w3.org/2000/svg"><path d="m437 345h-60c-41.355469 0-75-33.644531-75-75v-36.605469l34.917969-68.464843c13.507812-26.480469 40.359375-42.929688 70.082031-42.929688s56.574219 16.449219 70.082031 42.925781l34.917969 68.46875v36.605469c0 41.355469-33.644531 75-75 75zm0 0" fill="#deecf1"/><path d="m477.082031 164.925781c-13.507812-26.476562-40.359375-42.925781-70.082031-42.925781v223h30c41.355469 0 75-33.644531 75-75v-36.605469zm0 0" fill="#c6e2e7"/><path d="m332 512c-49.625 0-90-40.375-90-90v-332c0-33.085938-26.914062-60-60-60h-2c-33.085938 0-60 26.914062-60 60v5h-30v-5c0-49.625 40.375-90 90-90h2c49.625 0 90 40.375 90 90v332c0 33.085938 26.914062 60 60 60s60-26.914062 60-60v-52h30v52c0 49.625-40.375 90-90 90zm0 0" fill="#00607f"/><path d="m150 170h-90v-90h90zm0 0" fill="#ffcf87"/><path d="m150 170h-45v-90h45zm0 0" fill="#ffaf37"/><path d="m210 512h-210v-297c0-41.355469 33.644531-75 75-75h60c41.355469 0 75 33.644531 75 75zm0 0" fill="#ff641b"/><path d="m210 215c0-41.355469-33.644531-75-75-75h-30v372h105zm0 0" fill="#f03800"/><path d="m210 439h-210v-214h210zm0 0" fill="#deecf1"/><path d="m210 439h-105v-214h105zm0 0" fill="#c6e2e7"/><path d="m90.363281 349c-4.539062 0-8.671875-.917969-12.402343-2.757812-3.734376-1.835938-6.929688-4.25-9.585938-7.242188s-4.71875-6.414062-6.179688-10.265625c-1.464843-3.851563-2.195312-7.824219-2.195312-11.914063 0-4.144531.761719-8.144531 2.285156-12 1.519532-3.847656 3.65625-7.242187 6.402344-10.175781 2.746094-2.933593 5.988281-5.273437 9.71875-7.023437 3.730469-1.746094 7.839844-2.621094 12.316406-2.621094 4.539063 0 8.671875.921875 12.40625 2.757812 3.730469 1.835938 6.925782 4.265626 9.585938 7.289063 2.652344 3.019531 4.699218 6.457031 6.132812 10.308594 1.433594 3.855469 2.152344 7.792969 2.152344 11.824219 0 4.148437-.761719 8.132812-2.285156 11.957031-1.523438 3.820312-3.628906 7.199219-6.316406 10.132812-2.6875 2.933594-5.910157 5.289063-9.671876 7.066407-3.765624 1.777343-7.882812 2.664062-12.363281 2.664062zm-12.628906-32c0 2.132812.253906 4.195312.761719 6.179688.507812 1.984374 1.300781 3.746093 2.375 5.289062 1.074218 1.539062 2.417968 2.785156 4.03125 3.730469 1.613281.949219 3.492187 1.421875 5.640625 1.421875 2.210937 0 4.121093-.488282 5.734375-1.464844 1.613281-.976562 2.925781-2.25 3.941406-3.820312 1.015625-1.570313 1.777344-3.363282 2.285156-5.378907.503906-2.015625.761719-4.058593.761719-6.132812 0-2.132813-.269531-4.191407-.808594-6.179688-.535156-1.984375-1.328125-3.734375-2.371093-5.242187-1.046876-1.511719-2.375-2.726563-3.988282-3.644532-1.613281-.917968-3.492187-1.378906-5.644531-1.378906-2.207031 0-4.105469.476563-5.6875 1.421875-1.582031.949219-2.894531 2.210938-3.941406 3.777344-1.042969 1.570313-1.820313 3.351563-2.328125 5.335937-.507813 1.984376-.761719 4.011719-.761719 6.085938zm0 0" fill="#ff641b"/><path d="m125 379c0-1.777344.140625-3.34375.425781-4.695312.28125-1.351563.742188-2.570313 1.378907-3.65625.640624-1.082032 1.460937-2.050782 2.472656-2.90625 1.007812-.855469 2.257812-1.6875 3.746094-2.507813 1.910156-1.03125 3.425781-1.855469 4.542968-2.480469 1.113282-.621094 1.957032-1.128906 2.523438-1.519531s.929687-.722656 1.089844-.988281c.15625-.265625.238281-.558594.238281-.878906 0-.890626-.285157-1.550782-.851563-1.976563s-1.347656-.640625-2.335937-.640625c-1.171875 0-2.277344.304688-3.324219.90625-1.042969.609375-2.132812 1.585938-3.265625 2.9375l-6.375-7.523438c.671875-.75 1.539063-1.433593 2.601563-2.054687s2.242187-1.15625 3.535156-1.601563c1.292968-.445312 2.664062-.792968 4.117187-1.042968 1.453125-.246094 2.941407-.371094 4.464844-.371094 4.070313 0 7.160156.847656 9.269531 2.535156 2.105469 1.6875 3.160156 4.046875 3.160156 7.070313 0 1.101562-.140624 2.078125-.425781 2.933593-.28125.851563-.664062 1.625-1.140625 2.320313-.480468.691406-1.054687 1.324219-1.726562 1.894531-.671875.570313-1.382813 1.101563-2.125 1.601563-.886719.605469-1.816406 1.179687-2.789063 1.734375-.976562.550781-1.941406 1.164062-2.894531 1.839844h11.6875v9.070312zm0 0" fill="#f03800"/><path d="m452 385h-90v-88c0-24.8125 20.1875-45 45-45s45 20.1875 45 45zm0 0" fill="#00c0f1"/><path d="m392 192h30v30h-30zm0 0" fill="#a8d3d8"/><path d="m112.714844 295.042969c-2.199219-2.496094-4.785156-4.566407-7.714844-6.257813v56.34375c2.800781-1.597656 5.273438-3.542968 7.398438-5.863281 2.6875-2.933594 4.792968-6.3125 6.316406-10.132813 1.523437-3.820312 2.285156-7.808593 2.285156-11.953124 0-4.03125-.71875-7.972657-2.152344-11.824219-1.429687-3.851563-3.476562-7.289063-6.132812-10.3125zm0 0" fill="#f03800"/><path d="m452 385v-88c0-24.8125-20.1875-45-45-45v133zm0 0" fill="#00abe9"/><path d="m407 192h15v30h-15zm0 0" fill="#8ebac5"/></svg>