<svg height="512" viewBox="0 0 64 64" width="512" xmlns="http://www.w3.org/2000/svg"><g id="Icons"><g><g><path d="m42 40h-30v-14c0-1.105-.895-2-2-2h-4c-1.105 0-2 .895-2 2v22h12 26z" fill="#64c8f0"/></g><g><path d="m16 48h26v4h-26z" fill="#505050"/></g><g><path d="m16 52h-1c2.414 0 4.434 1.721 4.899 4h22.101v-4z" fill="#64c8f0"/></g><g><path d="m10 24h-4c-1.105 0-2 .895-2 2v22h4v-22c0-1.105.895-2 2-2z" fill="#46aad2"/></g><g><path d="m22.243 22.243c-2.343 2.343-6.142 2.343-8.485 0-2.343-2.343-2.343-6.142 0-8.485 2.343-2.343 6.142-2.343 8.485 0 2.343 2.343 2.343 6.141 0 8.485z" fill="#f0c8a0"/></g><g><path d="m17.757 22.243c-2.343-2.343-2.343-6.142 0-8.485.654-.654 1.426-1.105 2.243-1.394-2.112-.747-4.553-.295-6.243 1.394-2.343 2.343-2.343 6.142 0 8.485 1.689 1.689 4.131 2.141 6.243 1.394-.817-.289-1.589-.741-2.243-1.394z" fill="#d2aa82"/></g><g><path d="m13.757 22.243c-2.343-2.343-2.343-6.142 0-8.485 2.343-2.343 6.142-2.343 8.485 0z" fill="#fab400"/></g><g><path d="m17.757 13.757c.654-.654 1.426-1.105 2.243-1.394-2.112-.747-4.553-.295-6.243 1.394-2.343 2.343-2.343 6.142 0 8.485l2.523-2.523c-.613-2.044-.138-4.346 1.477-5.962z" fill="#dc9600"/></g><g><path d="m30 32-6.828-6.828c-.751-.751-1.768-1.172-2.829-1.172h-1.528c-3.437 0-5.273 4.048-3.01 6.634l6.445 7.366h7.75z" fill="#fa6450"/></g><g><path d="m21.177 24.093c-.272-.058-.551-.093-.834-.093h-1.528c-3.437 0-5.273 4.048-3.01 6.634l6.445 7.366h3.193l-6.445-7.366c-2.072-2.368-.703-5.951 2.179-6.541z" fill="#dc4632"/></g><g><path d="m14 31.555v6.445h5.592l-5.293-6.049c-.11-.127-.201-.263-.299-.396z" fill="#f0f0f0"/></g><g><path d="m16 48h4v4h-4z" fill="#3c3c3c"/></g><g><path d="m8 56h2.101c.465-2.279 2.484-4 4.899-4h-7z" fill="#64c8f0"/></g><g><path d="m15 54c1.657 0 3 1.343 3 3 0 1.657-1.343 3-3 3-1.657 0-3-1.343-3-3 0-1.657 1.343-3 3-3z" fill="#505050"/></g><g><path d="m15 56c.552 0 1 .448 1 1 0 .552-.448 1-1 1-.552 0-1-.448-1-1 0-.552.448-1 1-1z" fill="#f0f0f0"/></g><g><path d="m44 40h16v20h-16z" fill="#f0f0f0"/></g><g><path d="m44 40h2v20h-2z" fill="#d2d2d2"/></g><g><path d="m46 38v-2h2.537c.692-1.194 1.985-2 3.463-2s2.771.806 3.463 2h2.188c-.825-2.329-3.04-4-5.651-4h-22v6h12z" fill="#f0f0f0"/></g><g><path d="m54 38c0-1.105-.895-2-2-2-1.105 0-2 .895-2 2h-2v2h8v-2z" fill="#505050"/></g><g><path d="m46 42h2v2h-2z" fill="#64c8f0"/></g><g><path d="m46 46h2v2h-2z" fill="#3cc8b4"/></g><g><path d="m46 50h2v2h-2z" fill="#fab400"/></g><g><path d="m46 54h2v2h-2z" fill="#fa6450"/></g><g><path d="m50 42h8v2h-8z" fill="#505050" transform="matrix(-1 0 0 -1 108 86)"/></g><g><path d="m50 46h8v2h-8z" fill="#505050" transform="matrix(-1 0 0 -1 108 94)"/></g><g><path d="m50 50h8v2h-8z" fill="#505050" transform="matrix(-1 0 0 -1 108 102)"/></g><g><path d="m50 54h8v2h-8z" fill="#505050" transform="matrix(-1 0 0 -1 108 110)"/></g><g><path d="m30 22h20c1.105 0 2-.895 2-2v-14c0-1.105-.895-2-2-2h-20c-1.105 0-2 .895-2 2v14c0 1.105.895 2 2 2z" fill="#64c8f0"/></g><g><path d="m30 20v-14c0-1.105.895-2 2-2h-2c-1.105 0-2 .895-2 2v14c0 1.105.895 2 2 2h2c-1.105 0-2-.895-2-2z" fill="#46aad2"/></g><g><path d="m34 2h12v20h-12z" fill="#505050" transform="matrix(0 -1 1 0 28 52)"/></g><g><path d="m39.5 15.207v-4l-1.293 1.293h-4.207c-.276 0-.5-.224-.5-.5s.224-.5.5-.5h3.793l2.707-2.707v4l1.293-1.293h4.207c.276 0 .5.224.5.5s-.224.5-.5.5h-3.793z" fill="#3cc8b4"/></g><g><path d="m33 22c-.552 0-1-.448-1-1 0-.552.448-1 1-1 .552 0 1 .448 1 1 0 .552-.448 1-1 1z" fill="#fa6450"/></g><g><path d="m37 22c-.552 0-1-.448-1-1 0-.552.448-1 1-1 .552 0 1 .448 1 1 0 .552-.448 1-1 1z" fill="#fa6450"/></g></g></g></svg>